<?xml version="1.0" standalone="no"?>
<!DOCTYPE svg PUBLIC "-//W3C//DTD SVG 20010904//EN"
 "http://www.w3.org/TR/2001/REC-SVG-20010904/DTD/svg10.dtd">
<svg version="1.0" xmlns="http://www.w3.org/2000/svg"
 width="200.000000pt" height="200.000000pt" viewBox="0 0 200.000000 200.000000"
 preserveAspectRatio="xMidYMid meet">
<metadata>
Created by potrace 1.14, written by Peter Selinger 2001-2017
</metadata>
<g transform="translate(0.000000,200.000000) scale(0.100000,-0.100000)"
fill="#000000" stroke="none">
<path d="M945 1763 c-121 -37 -206 -140 -221 -268 l-7 -55 -91 0 c-81 0 -95
-3 -129 -25 -43 -30 -48 -63 -17 -110 11 -16 20 -42 20 -57 0 -27 -1 -27 -77
-30 -87 -3 -67 17 -166 -169 -31 -59 -57 -109 -57 -112 0 -4 36 -29 80 -58
l80 -51 0 -99 0 -99 70 -46 70 -47 0 -58 0 -57 66 -61 c61 -55 71 -61 111 -61
24 0 94 -11 155 -25 61 -14 115 -25 119 -25 5 0 28 38 51 83 l41 84 51 -14
c112 -30 134 -39 201 -83 39 -25 92 -59 118 -74 l48 -28 89 54 c49 29 90 58
90 64 0 5 -23 36 -51 67 -32 36 -48 61 -43 69 11 17 137 182 144 188 3 3 21
26 39 52 37 52 37 55 -25 111 -42 38 -52 62 -71 172 -3 17 -6 34 -6 38 -1 4
27 22 63 40 65 32 65 32 88 102 22 66 22 71 7 112 -9 24 -20 45 -24 47 -7 5
-158 -19 -194 -30 -12 -4 -38 15 -88 65 -46 46 -80 71 -94 71 -20 0 -24 7 -30
57 -25 201 -217 326 -410 266z"/>
</g>
</svg>
